<svg width="211" height="32" viewBox="0 0 211 32" fill="none" xmlns="http://www.w3.org/2000/svg">
<path d="M210.5 1V0.5H210H1H0.5V1V31V31.5H1H210H210.5V31V1Z" fill="#00529C" stroke="white"/>
<path d="M31.4 1H1V30.925H31.4V1Z" fill="#FCAF17"/>
<path d="M7.83994 26.425C9.51194 24.475 12.0199 21.4 13.4639 17.5L3.88794 12.025C6.24394 12.1 11.4119 12.325 13.9199 11.725C13.9199 9.32501 13.6159 6.1 12.8559 3.25C15.4399 4.975 19.3159 8.80001 20.5319 10.9L28.5119 9.17502L23.1919 15.55C25.3199 20.575 25.9279 24.7 25.6999 28.675C23.4959 25.15 22.5079 23.875 18.7079 20.2C16.3519 23.275 12.8559 25.15 7.83994 26.425Z" fill="#00529C"/>
<path d="M42.3441 11.5C42.7241 11.8 42.8761 12.25 42.8761 12.775C42.8761 13.3 42.7241 13.675 42.3441 14.05C41.9641 14.35 41.5081 14.575 40.9001 14.575H39.2281V11.05H40.9001C41.5081 10.975 41.9641 11.125 42.3441 11.5ZM46.1441 16.975C45.6121 16.3 44.9281 15.85 44.0161 15.55C45.3841 14.95 46.0681 13.825 46.0681 12.4C46.0681 11.35 45.7641 10.525 45.2321 9.7C44.3961 8.65 43.1801 8.125 41.5081 8.125H36.1121V23.575H42.0401C43.4841 23.575 44.7001 23.125 45.6121 22.3C46.4481 21.475 46.9041 20.5 46.9041 19.3C46.9801 18.4 46.6761 17.65 46.1441 16.975ZM42.9521 20.275C42.4961 20.575 41.8121 20.725 40.8241 20.725H39.2281V16.825H40.8241C41.8121 16.825 42.5721 16.975 42.9521 17.275C43.4081 17.575 43.5601 18.1 43.5601 18.775C43.5601 19.45 43.4081 19.975 42.9521 20.275Z" fill="white"/>
<path d="M51.844 23.575L48.9561 23.725V8.125L51.844 7.75V23.575Z" fill="white"/>
<path d="M64.9161 23.575L62.1801 23.725V22.225H62.1041C61.6481 22.825 61.1161 23.275 60.5841 23.5C60.0521 23.725 59.3681 23.875 58.5321 23.875C57.3161 23.875 56.3281 23.5 55.6441 22.825C54.8841 22.15 54.5801 21.175 54.5801 19.975V12.1L57.4681 11.725V19.15C57.4681 19.825 57.6201 20.35 57.9241 20.725C58.2281 21.175 58.6841 21.325 59.3681 21.325C60.2041 21.325 60.9641 21.025 61.4201 20.425C61.8761 19.9 62.0281 19.3 62.0281 18.475V11.95L64.9161 11.575V23.575Z" fill="white"/>
<path d="M69.9321 18.175C69.9321 18.025 69.8561 17.725 69.8561 17.425C69.9321 16.525 70.3121 15.775 70.9201 15.175C71.6041 14.575 72.3641 14.2 73.2761 14.2C74.1121 14.2 74.7961 14.425 75.3281 14.95L69.9321 18.175ZM76.7721 12.775C75.7841 12.1 74.7201 11.8 73.5041 11.8C71.7561 11.8 70.2361 12.4 69.0201 13.525C67.7281 14.725 67.1201 16.15 67.1201 17.8C67.1201 19.525 67.7281 20.95 69.0201 22.075C70.3121 23.275 71.8321 23.875 73.5041 23.875C75.2521 23.875 76.9241 23.35 78.3681 22.375L77.1521 19.9C75.7841 20.8 74.4921 21.25 73.3521 21.25C72.2121 21.25 71.4521 20.875 71.0721 20.125L79.0521 15.25C78.5201 14.275 77.7601 13.375 76.7721 12.775Z" fill="white"/>
<path d="M97.292 19.3C97.292 20.65 96.76 21.775 95.772 22.675C94.784 23.5 93.492 23.95 91.972 23.95C89.996 23.95 88.4 23.125 87.032 21.55L89.084 19.45C89.616 20.05 89.996 20.425 90.224 20.575C90.68 20.95 91.364 21.1 92.048 21.1C92.58 21.1 93.036 20.95 93.492 20.575C93.872 20.2 94.1 19.825 94.1 19.3C94.1 18.475 93.492 17.875 92.276 17.425C90.3 16.675 89.236 16.15 89.008 16.075C87.792 15.325 87.184 14.125 87.184 12.55C87.184 11.125 87.716 9.925 88.704 9.1C89.692 8.275 90.984 7.82501 92.58 7.82501C93.34 7.82501 94.176 8.05 95.012 8.425C95.848 8.8 96.532 9.325 96.988 9.925L95.088 12.1C94.176 11.2 93.34 10.675 92.352 10.675C90.984 10.675 90.3 11.275 90.3 12.55C90.3 13.225 90.908 13.75 92.124 14.125C93.872 14.725 94.936 15.1 95.392 15.475C96.684 16.225 97.292 17.575 97.292 19.3Z" fill="white"/>
<path d="M106.26 21.325L105.576 23.875C105.348 23.95 104.968 23.95 104.436 23.95C103.144 23.95 102.156 23.65 101.396 22.975C100.636 22.3 100.256 21.4 100.256 20.125V14.65H98.4321L99.0401 12.175H100.18V10.225L103.068 8.95001V12.25H105.728V14.725H103.068V19.6C103.068 20.8 103.828 21.4 105.272 21.4C105.5 21.325 105.88 21.325 106.26 21.325Z" fill="white"/>
<path d="M113.48 21.1C113.024 21.4 112.568 21.55 111.96 21.55C111.428 21.55 110.896 21.4 110.516 21.1C110.06 20.8 109.832 20.35 109.832 19.9C109.832 19.45 110.06 19 110.516 18.7C110.972 18.4 111.428 18.25 111.96 18.25C112.492 18.25 113.024 18.4 113.48 18.7C113.936 19 114.164 19.375 114.164 19.9C114.088 20.425 113.86 20.8 113.48 21.1ZM116.9 15.025C116.9 13.975 116.444 13.15 115.532 12.55C114.696 12.025 113.708 11.8 112.568 11.8C111.504 11.8 110.364 11.875 109.224 12.1L108.388 14.875C109.528 14.425 110.668 14.2 111.656 14.2C113.328 14.2 114.164 14.8 114.164 16.075C114.164 16.075 114.164 16.375 114.088 16.825C113.1 16.375 112.036 16.075 110.896 16.075C109.832 16.075 108.92 16.45 108.084 17.2C107.324 17.95 106.944 18.85 106.944 19.9C106.944 21.175 107.4 22.15 108.236 22.9C108.996 23.575 110.06 23.95 111.352 23.95C112.416 23.95 113.404 23.575 114.24 22.9V23.875L116.9 23.575V15.025Z" fill="white"/>
<path d="M126.4 11.8L125.412 14.875C123.284 14.875 122.22 15.925 122.22 18.1V23.575L119.332 23.725V12.1L122.068 11.875V13.975H122.144C122.6 13.15 123.208 12.55 123.892 12.25C124.5 11.95 125.336 11.8 126.4 11.8Z" fill="white"/>
<path d="M143.424 10.975H137.724V14.5H141.98V17.35H137.724V23.575L134.684 23.95V8.125H142.74L143.424 10.975Z" fill="white"/>
<path d="M147.148 18.175C147.148 18.025 147.072 17.725 147.072 17.425C147.148 16.525 147.528 15.775 148.212 15.175C148.896 14.575 149.656 14.2 150.568 14.2C151.404 14.2 152.088 14.425 152.62 14.95L147.148 18.175ZM153.988 12.775C153 12.1 151.936 11.8 150.72 11.8C148.972 11.8 147.452 12.4 146.16 13.525C144.868 14.725 144.26 16.15 144.26 17.8C144.26 19.525 144.868 20.95 146.16 22.075C147.452 23.275 148.972 23.875 150.72 23.875C152.468 23.875 154.064 23.35 155.584 22.375L154.368 19.9C153 20.8 151.708 21.25 150.568 21.25C149.428 21.25 148.668 20.875 148.288 20.125L156.268 15.25C155.66 14.275 154.976 13.375 153.988 12.775Z" fill="white"/>
<path d="M165.008 11.8L164.02 14.875C161.892 14.875 160.828 15.925 160.828 18.1V23.575L157.94 23.725V12.1L160.676 11.875V13.975H160.752C161.208 13.15 161.816 12.55 162.5 12.25C163.108 11.95 163.944 11.8 165.008 11.8Z" fill="white"/>
<path d="M173.064 11.8L172.076 14.875C169.948 14.875 168.884 15.925 168.884 18.1V23.575L165.996 23.725V12.1L168.732 11.875V13.975H168.808C169.264 13.15 169.872 12.55 170.556 12.25C171.164 11.95 172 11.8 173.064 11.8Z" fill="white"/>
<path d="M177.548 9.09999L175.572 10.975L173.596 9.09999L175.572 7.15001L177.548 9.09999ZM176.94 23.575L174.052 23.725V12.1L176.94 11.875V23.575Z" fill="white"/>
<path d="M181.956 18.175C181.956 18.025 181.88 17.725 181.88 17.425C181.956 16.525 182.336 15.775 183.02 15.175C183.704 14.575 184.464 14.2 185.376 14.2C186.212 14.2 186.896 14.425 187.428 14.95L181.956 18.175ZM188.72 12.775C187.732 12.1 186.668 11.8 185.452 11.8C183.704 11.8 182.184 12.4 180.968 13.525C179.676 14.725 179.068 16.15 179.068 17.8C179.068 19.525 179.676 20.95 180.968 22.075C182.26 23.275 183.78 23.875 185.452 23.875C187.2 23.875 188.872 23.35 190.316 22.375L189.1 19.9C187.732 20.8 186.44 21.25 185.3 21.25C184.16 21.25 183.4 20.875 183.02 20.125L191 15.25C190.468 14.275 189.708 13.375 188.72 12.775Z" fill="white"/>
<path d="M201.336 20.125C201.336 21.325 200.88 22.3 199.892 22.975C198.98 23.575 197.916 23.875 196.624 23.875C194.8 23.875 193.356 23.275 192.216 22.075L194.04 20.35C194.8 21.175 195.712 21.55 196.7 21.55C197.156 21.55 197.536 21.4 197.84 21.175C198.144 20.95 198.296 20.65 198.296 20.35C198.296 19.825 197.764 19.375 196.776 19.075C195.256 18.625 194.344 18.25 193.964 18.1C192.976 17.5 192.444 16.525 192.444 15.25C192.444 14.125 192.9 13.225 193.736 12.625C194.496 12.025 195.484 11.725 196.7 11.725C198.448 11.725 199.892 12.325 201.032 13.6L199.132 15.25C198.448 14.5 197.688 14.125 196.928 14.125C196.016 14.125 195.56 14.5 195.56 15.325C195.56 15.775 196.092 16.225 197.08 16.45C198.6 16.9 199.512 17.2 199.892 17.425C200.804 18.025 201.336 18.925 201.336 20.125Z" fill="white"/>
<path d="M204.756 14.575C204.528 14.8 204.3 14.875 203.996 14.875C203.692 14.875 203.388 14.8 203.236 14.575C203.008 14.35 202.932 14.05 202.932 13.75C202.932 13.45 203.008 13.15 203.236 12.925C203.464 12.7 203.692 12.625 203.996 12.625C204.3 12.625 204.528 12.7 204.756 12.925C204.984 13.15 205.06 13.45 205.06 13.75C205.136 14.05 204.984 14.35 204.756 14.575ZM205.136 12.625C204.832 12.325 204.452 12.25 204.072 12.25C203.616 12.25 203.236 12.4 203.008 12.625C202.704 12.925 202.552 13.3 202.552 13.75C202.552 14.2 202.704 14.575 203.008 14.875C203.312 15.1 203.692 15.25 204.072 15.25C204.528 15.25 204.832 15.1 205.136 14.875C205.44 14.575 205.592 14.2 205.592 13.75C205.592 13.3 205.44 12.925 205.136 12.625ZM203.388 14.575H203.768V13.9H203.92L204.3 14.575H204.68L204.224 13.9C204.528 13.9 204.68 13.75 204.68 13.45C204.68 13.3 204.604 13.15 204.528 13.075C204.452 13 204.224 13 203.996 13H203.388V14.575ZM204.072 13.6H203.768V13.225H203.996C204.224 13.225 204.3 13.3 204.3 13.375C204.3 13.525 204.224 13.6 204.072 13.6Z" fill="white"/>
</svg>
