<?xml version="1.0" encoding="utf-8"?>
<!-- Generator: Adobe Illustrator 16.0.0, SVG Export Plug-In . SVG Version: 6.00 Build 0)  -->
<!DOCTYPE svg PUBLIC "-//W3C//DTD SVG 1.1//EN" "http://www.w3.org/Graphics/SVG/1.1/DTD/svg11.dtd">
<svg version="1.1" id="Layer_1" xmlns="http://www.w3.org/2000/svg" xmlns:xlink="http://www.w3.org/1999/xlink" x="0px" y="0px"
	 width="263.539px" height="49.235px" viewBox="236.33 276.303 263.539 49.235"
	 enable-background="new 236.33 276.303 263.539 49.235" xml:space="preserve">
<g>
	<g>
		<circle fill="#0C0C0C" cx="262.736" cy="301.034" r="19.368"/>
		<g>
			<path fill="#FFFFFF" d="M253.171,289.164l-0.776-0.884l-0.972,0.854l0.777,0.885l-0.547,0.479l-1.917-2.181l0.546-0.48
				l0.771,0.875l0.971-0.854l-0.771-0.875l0.547-0.48l1.917,2.181L253.171,289.164z"/>
			<path fill="#FFFFFF" d="M262.991,283.725c0.034,0.599-0.353,0.923-1.164,0.969l-0.28,0.016l0.064,1.134l-0.73,0.042l-0.164-2.901
				l1.07-0.06C262.554,282.879,262.958,283.146,262.991,283.725z M262.244,283.771c-0.014-0.221-0.149-0.324-0.419-0.309
				l-0.348,0.02l0.038,0.663l0.344-0.02C262.125,284.109,262.255,283.992,262.244,283.771z"/>
			<path fill="#FFFFFF" d="M266.267,286.193l-0.104-0.593l-1.229-0.221l-0.329,0.515l-0.761-0.137l1.758-2.633l0.823,0.147
				l0.601,3.056L266.267,286.193z M265.865,283.919l-0.639,1.007l0.845,0.151L265.865,283.919z"/>
			<path fill="#FFFFFF" d="M269.529,287.386l-0.463-1.699l-0.555,1.246l-0.664-0.295l1.18-2.652l0.664,0.296l-0.525,1.18
				l1.426-0.779l0.746,0.332l-1.484,0.809l0.538,1.947L269.529,287.386z"/>
			<path fill="#FFFFFF" d="M276.447,294.354l1.111-1.487l-1.828,0.185l-0.375-0.683l3.206-0.258l0.15,0.275l-1.887,2.656
				L276.447,294.354z"/>
			<path fill="#FFFFFF" d="M277.093,295.874l2.787-0.81l0.541,1.863l-0.514,0.15l-0.339-1.167l-0.567,0.165l0.324,1.114
				l-0.519,0.149l-0.323-1.114l-0.666,0.193l0.349,1.2l-0.521,0.152L277.093,295.874z"/>
			<path fill="#FFFFFF" d="M277.828,298.975l2.885-0.325l0.084,0.743l-2.886,0.326L277.828,298.975z"/>
			<path fill="#FFFFFF" d="M279.207,304.108c-0.437-0.039-0.777-0.22-1.031-0.54c-0.258-0.326-0.362-0.715-0.321-1.167
				c0.04-0.453,0.213-0.813,0.514-1.08c0.312-0.276,0.686-0.396,1.121-0.357c0.435,0.039,0.781,0.225,1.042,0.549
				c0.25,0.309,0.353,0.693,0.312,1.154c-0.042,0.461-0.212,0.826-0.513,1.085C280.015,304.027,279.642,304.147,279.207,304.108z
				 M279.273,303.359c0.263,0.023,0.479-0.033,0.66-0.175c0.179-0.143,0.28-0.334,0.303-0.57c0.021-0.237-0.046-0.443-0.197-0.615
				c-0.149-0.171-0.354-0.267-0.619-0.29c-0.258-0.022-0.477,0.034-0.654,0.176c-0.18,0.144-0.281,0.334-0.303,0.571
				c-0.021,0.241,0.041,0.443,0.191,0.615C278.806,303.241,279.01,303.334,279.273,303.359z"/>
			<path fill="#FFFFFF" d="M276.673,307.24l2.282-0.877l-1.709-0.645l0.254-0.673l2.721,1.025l-0.226,0.598l-2.17,0.847l1.62,0.611
				l-0.254,0.672l-2.72-1.023L276.673,307.24z"/>
		</g>
		
			<circle fill="none" stroke="#0C0C0C" stroke-width="1.0763" stroke-linecap="round" stroke-linejoin="round" stroke-miterlimit="10" cx="262.735" cy="301.034" r="21.076"/>
		<g>
			<g>
				<path fill="#FFFFFF" d="M254.352,307.168c-1.498,0-2.715-1.218-2.715-2.715c0-1.498,1.218-2.715,2.715-2.715
					s2.715,1.217,2.715,2.715C257.067,305.951,255.849,307.168,254.352,307.168z M254.352,302.119c-1.287,0-2.335,1.049-2.335,2.335
					c0,1.288,1.049,2.334,2.335,2.334c1.288,0,2.336-1.046,2.336-2.334C256.688,303.167,255.639,302.119,254.352,302.119z
					 M254.352,305.76c-0.722,0-1.307-0.586-1.307-1.307c0-0.722,0.584-1.306,1.307-1.306c0.721,0,1.306,0.584,1.306,1.306
					C255.657,305.173,255.072,305.76,254.352,305.76z M254.352,303.528c-0.513,0-0.926,0.417-0.926,0.926
					c0,0.51,0.413,0.924,0.926,0.924c0.51,0,0.926-0.414,0.926-0.924C255.277,303.944,254.862,303.528,254.352,303.528z"/>
				<path fill="#FFFFFF" d="M249.065,298.831c-0.785,0-1.421-0.638-1.421-1.423c0-0.786,0.636-1.425,1.421-1.425
					c0.786,0,1.424,0.64,1.424,1.425C250.49,298.193,249.852,298.831,249.065,298.831z M249.065,296.364
					c-0.574,0-1.04,0.468-1.04,1.044c0,0.574,0.466,1.042,1.04,1.042c0.576,0,1.043-0.468,1.043-1.042
					C250.108,296.832,249.641,296.364,249.065,296.364z M249.065,298.143c-0.404,0-0.733-0.33-0.733-0.734
					c0-0.406,0.33-0.736,0.733-0.736c0.407,0,0.737,0.33,0.737,0.736C249.803,297.813,249.472,298.143,249.065,298.143z
					 M249.065,297.052c-0.195,0-0.354,0.16-0.354,0.355c0,0.194,0.16,0.354,0.354,0.354c0.197,0,0.355-0.16,0.355-0.354
					C249.422,297.212,249.262,297.052,249.065,297.052z"/>
				<path fill="#FFFFFF" d="M259.137,308.505c-0.471,0-0.852,0.381-0.852,0.85c0,0.471,0.381,0.852,0.852,0.852
					c0.469,0,0.849-0.38,0.849-0.852C259.986,308.886,259.605,308.505,259.137,308.505z M259.137,309.732
					c-0.208,0-0.378-0.168-0.378-0.377c0-0.205,0.17-0.374,0.378-0.374c0.207,0,0.375,0.169,0.375,0.374
					C259.512,309.563,259.343,309.732,259.137,309.732z"/>
				<path fill="#FFFFFF" d="M261.146,308.881c-0.469,0-0.849,0.381-0.849,0.852s0.38,0.85,0.849,0.85
					c0.471,0,0.852-0.379,0.852-0.85S261.617,308.881,261.146,308.881z M261.146,310.109c-0.206,0-0.375-0.168-0.375-0.375
					s0.17-0.376,0.375-0.376c0.208,0,0.376,0.169,0.376,0.376C261.523,309.941,261.354,310.109,261.146,310.109z"/>
				<path fill="#FFFFFF" d="M263.159,309.208c-0.468,0-0.851,0.381-0.851,0.854c0,0.469,0.382,0.849,0.851,0.849
					c0.47,0,0.85-0.38,0.85-0.849C264.009,309.589,263.629,309.208,263.159,309.208z M263.159,310.436
					c-0.207,0-0.375-0.168-0.375-0.375c0-0.208,0.168-0.378,0.375-0.378c0.208,0,0.376,0.169,0.376,0.378
					C263.536,310.268,263.367,310.436,263.159,310.436z"/>
				<path fill="#FFFFFF" d="M263.57,298.065c-0.896,0-1.627-0.73-1.627-1.627c0-0.897,0.73-1.629,1.627-1.629
					c0.898,0,1.628,0.731,1.628,1.629C265.198,297.334,264.468,298.065,263.57,298.065z M263.57,295.19
					c-0.688,0-1.247,0.561-1.247,1.248c0,0.687,0.561,1.248,1.247,1.248c0.688,0,1.248-0.562,1.248-1.248
					C264.818,295.75,264.259,295.19,263.57,295.19z M263.57,297.26c-0.454,0-0.824-0.368-0.824-0.823
					c0-0.456,0.371-0.826,0.824-0.826c0.455,0,0.826,0.37,0.826,0.826C264.396,296.892,264.025,297.26,263.57,297.26z
					 M263.57,295.993c-0.245,0-0.443,0.199-0.443,0.445c0,0.245,0.199,0.443,0.443,0.443c0.247,0,0.446-0.198,0.446-0.443
					C264.016,296.192,263.817,295.993,263.57,295.993z"/>
				<path fill="#FFFFFF" d="M266.8,300.649c-0.896,0-1.627-0.731-1.627-1.628c0-0.898,0.73-1.628,1.627-1.628
					c0.898,0,1.629,0.729,1.629,1.628C268.428,299.917,267.698,300.649,266.8,300.649z M266.8,297.773
					c-0.686,0-1.247,0.559-1.247,1.248c0,0.688,0.562,1.246,1.247,1.246c0.689,0,1.248-0.559,1.248-1.246
					C268.047,298.332,267.489,297.773,266.8,297.773z M266.8,299.846c-0.454,0-0.824-0.371-0.824-0.825
					c0-0.455,0.371-0.825,0.824-0.825c0.456,0,0.826,0.37,0.826,0.825C267.626,299.475,267.256,299.846,266.8,299.846z
					 M266.8,298.576c-0.244,0-0.443,0.199-0.443,0.445c0,0.244,0.199,0.444,0.443,0.444c0.247,0,0.445-0.2,0.445-0.444
					C267.245,298.774,267.046,298.576,266.8,298.576z"/>
				<path fill="#FFFFFF" d="M272.027,291.652c-0.438,0-0.792,0.354-0.792,0.791s0.354,0.793,0.792,0.793
					c0.437,0,0.791-0.355,0.791-0.793S272.464,291.652,272.027,291.652z"/>
				<path fill="#FFFFFF" d="M271.852,292.12c-0.156,0-0.283,0.127-0.283,0.282c0,0.154,0.126,0.278,0.283,0.278
					c0.152,0,0.278-0.124,0.278-0.278C272.131,292.247,272.005,292.12,271.852,292.12z"/>
				<path fill="#FFFFFF" d="M254.176,308.225c-0.105,0-0.19-0.085-0.19-0.189s0.085-0.19,0.19-0.19c1.014,0,1.967-0.394,2.682-1.106
					c0.073-0.089,1.088-1.375,0.722-3.126c-0.021-0.102,0.045-0.202,0.147-0.224c0.102-0.022,0.202,0.043,0.226,0.147
					c0.416,1.992-0.759,3.396-0.81,3.454c-0.002,0.005-0.007,0.008-0.01,0.012C256.342,307.791,255.293,308.225,254.176,308.225z"/>
				<path fill="#FFFFFF" d="M248.503,308.956c-0.069,0-0.136-0.039-0.169-0.105c-0.049-0.092-0.012-0.209,0.083-0.256
					c2.046-1.044,1.582-4.492,1.577-4.524c-0.001-0.011-0.001-0.019-0.001-0.027c0-1.117,0.435-2.167,1.223-2.957
					c0.792-0.791,1.842-1.227,2.96-1.227c1.116,0,2.166,0.436,2.957,1.227c0.075,0.075,0.075,0.195,0,0.269
					c-0.074,0.073-0.193,0.073-0.27,0c-0.719-0.719-1.672-1.114-2.688-1.114c-1.016,0-1.971,0.396-2.689,1.114
					c-0.716,0.716-1.111,1.664-1.114,2.677c0.017,0.123,0.12,0.982-0.019,1.98c-0.201,1.425-0.81,2.437-1.765,2.923
					C248.562,308.949,248.532,308.956,248.503,308.956z"/>
				<path fill="#FFFFFF" d="M260.605,295.278c-0.048,0-0.098-0.021-0.135-0.058l-6.02-6.017c-0.074-0.076-0.074-0.195,0-0.271
					c0.073-0.075,0.195-0.075,0.271,0l6.019,6.021c0.075,0.073,0.075,0.195,0,0.268
					C260.704,295.258,260.654,295.278,260.605,295.278z"/>
				<path fill="#FFFFFF" d="M260.605,293.751c-0.048,0-0.098-0.021-0.135-0.057l-6.02-6.021c-0.074-0.074-0.074-0.193,0-0.269
					c0.073-0.073,0.195-0.073,0.271,0l6.019,6.021c0.075,0.074,0.075,0.193,0,0.27C260.704,293.732,260.654,293.751,260.605,293.751
					z"/>
				<path fill="#FFFFFF" d="M260.605,292.223c-0.048,0-0.098-0.017-0.135-0.056l-6.02-6.018c-0.074-0.074-0.074-0.195,0-0.268
					c0.073-0.075,0.195-0.075,0.271,0l6.019,6.019c0.075,0.074,0.075,0.195,0,0.269
					C260.704,292.207,260.654,292.223,260.605,292.223z"/>
				<path fill="#FFFFFF" d="M260.605,290.698c-0.048,0-0.098-0.02-0.135-0.057l-6.02-6.019c-0.074-0.073-0.074-0.195,0-0.269
					c0.073-0.075,0.195-0.075,0.271,0l6.019,6.02c0.075,0.073,0.075,0.194,0,0.268C260.704,290.678,260.654,290.698,260.605,290.698
					z"/>
				<path fill="#FFFFFF" d="M274.2,312.462h-4.874c-0.118,0-0.213-0.096-0.213-0.213c0-0.118,0.096-0.213,0.213-0.213h4.874
					c0.118,0,0.212,0.095,0.212,0.213C274.413,312.367,274.318,312.462,274.2,312.462z"/>
				<path fill="#FFFFFF" d="M273.696,311.176h-3.967c-0.118,0-0.212-0.096-0.212-0.213s0.095-0.212,0.212-0.212h3.967
					c0.117,0,0.212,0.095,0.212,0.212S273.813,311.176,273.696,311.176z"/>
				<path fill="#FFFFFF" d="M271.733,290.772c0,0,1.469,0.293,1.821,1.409c0,0,0.294-2.231,2.465-2.878
					C276.019,289.303,273.848,288.421,271.733,290.772z"/>
				<path fill="#FFFFFF" d="M267.878,310.611c-0.017,0-0.03,0-0.045-0.005c-0.104-0.026-0.165-0.132-0.14-0.232
					c0.287-1.146,2.41-1.86,4.464-2.552c0.388-0.131,0.789-0.267,1.159-0.4c3.054-1.089,2.085-4.566,1.305-7.36
					c-0.13-0.47-0.254-0.913-0.352-1.32c-0.476-1.993-0.668-3.938-0.741-4.906c-0.3,0.396-0.825,0.837-1.646,0.791
					c-1.448-0.086-1.704-1.344-1.708-1.357c-0.018-0.104,0.051-0.202,0.151-0.223c0.103-0.019,0.203,0.048,0.224,0.15l0,0
					c0.008,0.042,0.208,0.981,1.357,1.05c1.158,0.066,1.576-1.066,1.593-1.115c0.031-0.086,0.118-0.138,0.208-0.125
					c0.09,0.016,0.158,0.089,0.162,0.182c0,0.024,0.112,2.698,0.771,5.466c0.095,0.4,0.217,0.841,0.348,1.306
					c0.778,2.792,1.846,6.613-1.542,7.821c-0.376,0.135-0.779,0.271-1.168,0.401c-1.865,0.628-3.979,1.341-4.215,2.285
					C268.042,310.552,267.963,310.611,267.878,310.611z"/>
				<path fill="#FFFFFF" d="M267.726,296.873c-0.468,0-0.851-0.344-0.869-0.362l-5.059-4.654c-0.076-0.071-0.08-0.19-0.013-0.269
					c0.073-0.078,0.192-0.081,0.27-0.012l5.057,4.656c0.002,0,0.415,0.364,0.791,0.228c0.306-0.11,0.389-0.434,0.496-0.952
					c0.018-0.083,0.036-0.169,0.055-0.253c0.137-0.598,0.917-3.623,2.695-4.514c0.094-0.046,0.208-0.008,0.256,0.086
					c0.047,0.094,0.009,0.209-0.085,0.255c-1.628,0.814-2.364,3.688-2.495,4.257c-0.018,0.083-0.037,0.165-0.055,0.247
					c-0.104,0.513-0.214,1.044-0.736,1.231C267.93,296.855,267.824,296.873,267.726,296.873z"/>
				<path fill="#FFFFFF" d="M269.058,305.022c-4.028,0-7.64-2.12-10.51-6.198c-2.427-3.443-3.49-7.113-3.501-7.149
					c-0.028-0.103,0.029-0.208,0.131-0.236c0.1-0.028,0.208,0.03,0.233,0.131c0.015,0.038,1.063,3.651,3.453,7.044
					c3.061,4.345,6.809,6.357,11.139,5.989c0.018-0.007,0.036-0.013,0.054-0.014l0.477-0.042c0.004-0.002,0.009-0.002,0.014-0.002
					c1.198-0.222,2.106-1.274,2.106-2.537c0-1.422-1.155-2.579-2.58-2.579c-0.104,0-0.19-0.085-0.19-0.189
					c0-0.105,0.087-0.191,0.19-0.191c1.634,0,2.96,1.328,2.96,2.959c0,1.594-1.26,2.895-2.836,2.958
					C269.815,305.003,269.434,305.022,269.058,305.022z"/>
				<path fill="#FFFFFF" d="M275.083,315.218h-10.56c-0.549,0-0.997-0.444-0.997-0.994c0-0.549,0.448-0.995,0.997-0.995h10.56
					c0.549,0,0.997,0.446,0.997,0.995C276.079,314.774,275.631,315.218,275.083,315.218z M264.522,313.609
					c-0.338,0-0.615,0.274-0.615,0.615s0.277,0.614,0.615,0.614h10.56c0.339,0,0.615-0.273,0.615-0.614
					c0-0.34-0.276-0.615-0.615-0.615H264.522z"/>
				<path fill="#FFFFFF" d="M259.381,315.422L259.381,315.422c-0.145,0-0.285-0.032-0.418-0.093l-9.584-4.433
					c-0.242-0.112-0.425-0.312-0.518-0.56c-0.092-0.25-0.08-0.521,0.031-0.762c0.162-0.352,0.517-0.579,0.903-0.579
					c0.146,0,0.284,0.031,0.418,0.092l9.585,4.433c0.24,0.111,0.425,0.312,0.517,0.561c0.093,0.25,0.081,0.521-0.031,0.762
					C260.123,315.196,259.769,315.422,259.381,315.422z M249.796,309.379c-0.238,0-0.458,0.141-0.559,0.357
					c-0.068,0.147-0.074,0.316-0.019,0.47c0.057,0.154,0.169,0.278,0.319,0.346l9.583,4.432c0.083,0.039,0.17,0.059,0.259,0.059
					c0.238,0,0.458-0.14,0.561-0.358c0.067-0.147,0.075-0.315,0.017-0.47c-0.056-0.151-0.169-0.276-0.316-0.346l-9.585-4.432
					C249.972,309.398,249.886,309.379,249.796,309.379z"/>
				<path fill="#FFFFFF" d="M265.919,309.387L265.919,309.387c-0.108,0-0.215-0.01-0.318-0.034l-6.637-1.492
					c-0.375-0.084-0.696-0.311-0.903-0.637c-0.204-0.324-0.273-0.712-0.188-1.088c0.146-0.651,0.737-1.127,1.406-1.127
					c0.107,0,0.212,0.014,0.318,0.038l6.635,1.491c0.377,0.085,0.697,0.311,0.904,0.637c0.205,0.324,0.271,0.711,0.187,1.087
					C267.176,308.914,266.586,309.387,265.919,309.387z M259.279,305.389c-0.492,0-0.927,0.351-1.034,0.83
					c-0.064,0.277-0.015,0.562,0.139,0.804c0.15,0.238,0.388,0.404,0.665,0.468l6.636,1.492c0.078,0.016,0.155,0.024,0.235,0.024
					c0.49,0,0.927-0.349,1.033-0.829c0.063-0.276,0.013-0.562-0.138-0.802c-0.151-0.24-0.388-0.406-0.666-0.469l-6.634-1.492
					C259.436,305.398,259.356,305.389,259.279,305.389z"/>
				<path fill="#FFFFFF" d="M248.04,304.145c-0.174,0-0.348-0.016-0.521-0.045c-1.474-0.258-2.352-1.515-2.446-1.656
					c-0.502-0.749-0.676-2.656-0.645-3.18c0.077-1.347,0.476-3.251,1.922-4.685l0.023-0.026c0.347-0.346,0.749-0.617,1.197-0.807
					c0.466-0.197,0.96-0.297,1.469-0.297c0.508,0,1.002,0.1,1.467,0.297c0.449,0.189,0.854,0.461,1.199,0.807
					c0.345,0.348,0.617,0.749,0.809,1.198c0.194,0.466,0.296,0.958,0.296,1.468c0,0.511-0.102,1.002-0.296,1.468
					c-0.191,0.449-0.464,0.853-0.809,1.198c-0.346,0.347-0.75,0.619-1.199,0.809c-0.464,0.196-0.959,0.296-1.467,0.296
					s-1.003-0.1-1.469-0.296c-0.448-0.188-0.851-0.461-1.197-0.809c-0.074-0.074-0.074-0.193,0-0.269
					c0.075-0.074,0.193-0.074,0.271,0c0.311,0.312,0.672,0.555,1.077,0.727c0.418,0.177,0.86,0.266,1.318,0.266
					c0.457,0,0.903-0.089,1.32-0.266c0.401-0.172,0.765-0.416,1.077-0.727c0.311-0.312,0.555-0.674,0.728-1.078
					c0.176-0.418,0.266-0.861,0.266-1.319c0-0.457-0.09-0.9-0.266-1.318c-0.172-0.403-0.417-0.767-0.728-1.077
					c-0.312-0.312-0.675-0.557-1.077-0.728c-0.417-0.176-0.863-0.267-1.32-0.267c-0.458,0-0.9,0.091-1.318,0.267
					c-0.405,0.171-0.767,0.415-1.077,0.728l-0.027,0.024c-1.359,1.348-1.734,3.156-1.809,4.438c-0.029,0.46,0.14,2.288,0.581,2.946
					c0.085,0.129,0.878,1.263,2.194,1.491c0.806,0.142,1.635-0.096,2.461-0.705c0.084-0.062,0.205-0.044,0.268,0.04
					c0.062,0.085,0.046,0.204-0.041,0.267C249.53,303.87,248.784,304.145,248.04,304.145z"/>
				<path fill="#FFFFFF" d="M260.495,312.781c-0.033,0-0.062-0.007-0.095-0.022L252.882,309c-0.104-0.053-0.146-0.18-0.095-0.284
					c0.052-0.105,0.18-0.148,0.285-0.097l7.517,3.759c0.107,0.052,0.148,0.182,0.098,0.284
					C260.646,312.738,260.572,312.781,260.495,312.781z"/>
			</g>
			<circle fill="#0C0C0C" cx="271.816" cy="292.267" r="0.309"/>
		</g>
	</g>
	<g>
		<g>
			<path fill="#010101" stroke="#010101" stroke-width="0.7102" stroke-miterlimit="10" d="M291.376,306.905l5.633-13.189h1.327
				l5.864,13.189H291.376z M297.644,296.599l-3.634,8.613h7.518L297.644,296.599z"/>
			<path fill="#010101" stroke="#010101" stroke-width="0.7102" stroke-miterlimit="10" d="M315.827,306.905v-5.71h-7.344v5.71
				h-1.884v-13.112h1.884v5.71h7.344v-5.71h1.884v13.112H315.827z"/>
			<path fill="#010101" stroke="#010101" stroke-width="0.7102" stroke-miterlimit="10" d="M331.874,306.905v-10.209h-0.039
				l-4.037,5.076h-0.308l-4.038-5.076h-0.039v10.209h-1.884v-13.112h1.769l4.346,5.383l4.363-5.383h1.75v13.112H331.874
				L331.874,306.905z"/>
			<path fill="#010101" stroke="#010101" stroke-width="0.7102" stroke-miterlimit="10" d="M351.056,300.348
				c0,1.827-0.636,3.403-1.885,4.691c-1.326,1.365-3.057,2.038-5.21,2.038c-2.095,0-3.788-0.673-5.113-2.038
				c-1.25-1.289-1.885-2.865-1.885-4.691c0-1.864,0.635-3.44,1.923-4.729c1.326-1.327,3.037-2,5.113-2c2.097,0,3.826,0.673,5.153,2
				C350.421,296.888,351.056,298.464,351.056,300.348z M349.114,300.348c0-1.441-0.479-2.634-1.442-3.575
				c-0.979-0.942-2.211-1.423-3.672-1.423c-1.441,0-2.652,0.48-3.634,1.423c-0.979,0.941-1.461,2.134-1.461,3.575
				c0,1.442,0.48,2.635,1.442,3.576c0.979,0.942,2.211,1.423,3.652,1.423c1.461,0,2.672-0.48,3.653-1.423
				C348.633,302.983,349.114,301.791,349.114,300.348z"/>
			<path fill="#010101" stroke="#010101" stroke-width="0.7102" stroke-miterlimit="10" d="M352.799,306.905v-1.097l4.269-5.729
				l-3.999-5.268v-1.02h8.825v1.461h-6.575l3.768,4.826l-4.036,5.364h6.997v1.461H352.799L352.799,306.905z"/>
			<path fill="#010101" stroke="#010101" stroke-width="0.7102" stroke-miterlimit="10" d="M380.266,306.905v-5.326h-5.846v5.326
				h-3.288v-13.131h3.288v5.268h5.846v-5.268h3.288v13.131H380.266z"/>
			<path fill="#010101" stroke="#010101" stroke-width="0.7102" stroke-miterlimit="10" d="M397.16,297.696
				c0,2.711-1.827,4.076-5.499,4.076h-1.269v5.133h-3.308v-13.131h4.846C395.41,293.774,397.16,295.081,397.16,297.696z
				 M393.776,297.714c0-1-0.596-1.5-1.808-1.5h-1.576v2.999h1.557C393.161,299.214,393.776,298.714,393.776,297.714z"/>
			<path fill="#010101" stroke="#010101" stroke-width="0.7102" stroke-miterlimit="10" d="M409.44,306.905l-0.941-2.558h-5.653
				l-1.058,2.558h-3.5l5.729-13.131h3.788l5.114,13.131H409.44z M405.826,297.099l-2.038,4.999h3.885L405.826,297.099z"/>
			<path fill="#010101" stroke="#010101" stroke-width="0.7102" stroke-miterlimit="10" d="M423.2,306.905l-5.037-6.171v6.171
				h-3.287v-13.131h3.287v5.845l4.461-5.845h3.69l-4.653,6.074l5.808,7.057H423.2z"/>
			<path fill="#010101" stroke="#010101" stroke-width="0.7102" stroke-miterlimit="10" d="M437.69,306.905l-3.46-7.633
				l-3.249,7.633h-3.519l5.96-13.247h1.423l6.401,13.247H437.69z"/>
			<path fill="#010101" stroke="#010101" stroke-width="0.7102" stroke-miterlimit="10" d="M443.107,306.905v-13.131h8.786v2.422
				h-5.499v2.672h5.249v2.441h-5.249v3.135h5.653v2.461H443.107L443.107,306.905z"/>
			<path fill="#010101" stroke="#010101" stroke-width="0.7102" stroke-miterlimit="10" d="M455.195,306.905v-13.131h3.384v13.131
				H455.195z"/>
			<path fill="#010101" stroke="#010101" stroke-width="0.7102" stroke-miterlimit="10" d="M475.822,300.348
				c0,1.98-0.673,3.596-2.019,4.864c-1.365,1.288-3.076,1.922-5.135,1.922c-2.057,0-3.748-0.634-5.074-1.884
				c-1.365-1.288-2.059-2.922-2.059-4.903c0-1.979,0.692-3.613,2.059-4.922c1.288-1.25,2.979-1.864,5.074-1.864
				c2.097,0,3.808,0.614,5.096,1.864C475.13,296.735,475.822,298.369,475.822,300.348z M472.42,300.348
				c0-1.191-0.347-2.152-1.059-2.902c-0.711-0.75-1.615-1.135-2.691-1.135s-1.98,0.385-2.691,1.135s-1.058,1.711-1.058,2.902
				c0,1.174,0.346,2.135,1.058,2.885c0.711,0.75,1.615,1.134,2.691,1.134c1.096,0,1.979-0.365,2.691-1.115
				S472.42,301.541,472.42,300.348z"/>
			<path fill="#010101" stroke="#010101" stroke-width="0.7102" stroke-miterlimit="10" d="M485.467,300.945v5.96h-3.288v-5.941
				l-5.172-7.189h3.94l2.884,4.249l2.961-4.249h3.903L485.467,300.945z"/>
		</g>
	</g>
</g>
</svg>
