<?xml version="1.0" encoding="utf-8"?>
<!-- Generator: Adobe Illustrator 23.0.0, SVG Export Plug-In . SVG Version: 6.00 Build 0)  -->
<svg version="1.1" id="Layer_1" xmlns="http://www.w3.org/2000/svg" xmlns:xlink="http://www.w3.org/1999/xlink" x="0px" y="0px"
	 viewBox="0 0 300 300" style="enable-background:new 0 0 300 300;" xml:space="preserve">
<style type="text/css">
	.st0{fill:#FFFFFF;}
</style>
<g>
	<path class="st0" d="M281.3,58.2l-32.4,20.5c-9.6-21-30.8-35.6-55.4-35.6c-5.3,0-10.5,0.7-15.5,2c-3.9-12.7-11.4-24.3-21.4-33
		C168,7.5,180.4,5,193.5,5C231.6,5,264.8,26.6,281.3,58.2z"/>
	<path class="st0" d="M281.7,150.3c-25.7,54.9-88.2,90.9-88.2,90.9s-76.3-43.9-95-108.7c-0.1-0.4-0.2-0.8-0.3-1.2
		c-1.1-4-2-8.2-2.7-12.4c-0.3-1.8-0.5-3.6-0.7-5.5c-0.1-0.6-0.1-1.2-0.2-1.8c-0.1-0.9-0.1-1.8-0.2-2.7c0-0.7-0.1-1.3-0.1-1.9
		c0-0.9,0-1.8,0-2.8V88.8h15.1c12.6,0,22.9-10.2,22.9-22.9c0-10.7-7.4-19.8-17.4-22.2c-1.7-0.4-3.6-0.6-5.4-0.6H56.3v160.1h-38V5
		h91.1c8.1,0,15.9,1.6,23,4.5c4.9,2,9.4,4.5,13.5,7.7c10.4,7.8,18.2,18.8,22,31.6c1.6,5.5,2.5,11.3,2.5,17.3
		c0,24.6-14.5,45.7-35.4,55.4c7.4,25.3,30.8,43.7,58.5,43.7c24.6,0,45.8-14.6,55.4-35.6L281.7,150.3z"/>
</g>
<g>
	<g>
		<g>
			<path class="st0" d="M32.1,277.5h-4.9v8.4h-8.9v-31.6h14.4c2.9,0,5.3,0.5,7.4,1.4c2.1,0.9,3.7,2.3,4.9,4.1
				c1.1,1.8,1.7,3.8,1.7,6.2c0,2.3-0.5,4.3-1.6,6c-1.1,1.7-2.6,3-4.6,4l6.8,9.9h-9.6L32.1,277.5z M36.4,262.5
				c-0.9-0.8-2.3-1.2-4.1-1.2h-5v9.2h5c1.8,0,3.2-0.4,4.1-1.2c0.9-0.8,1.4-1.9,1.4-3.4C37.8,264.5,37.3,263.3,36.4,262.5z"/>
			<path class="st0" d="M77,275.8H59.3c0.4,1.3,1.1,2.2,2.1,2.9c1,0.7,2.3,1,3.9,1c1.2,0,2.2-0.2,3-0.5c0.9-0.3,1.7-0.9,2.6-1.6
				l4.5,4.7c-2.4,2.6-5.8,4-10.4,4c-2.9,0-5.4-0.5-7.5-1.6s-3.8-2.6-5-4.5c-1.2-1.9-1.8-4.1-1.8-6.5c0-2.4,0.6-4.6,1.7-6.5
				c1.2-1.9,2.8-3.4,4.8-4.5c2-1.1,4.3-1.6,6.9-1.6c2.4,0,4.6,0.5,6.6,1.5c2,1,3.6,2.5,4.7,4.4c1.2,1.9,1.7,4.2,1.7,6.8
				C77.2,273.7,77.1,274.4,77,275.8z M60.8,268.2c-0.9,0.8-1.5,1.8-1.7,3.1h10c-0.2-1.3-0.8-2.3-1.7-3.1c-0.9-0.8-2-1.1-3.3-1.1
				C62.8,267.1,61.7,267.5,60.8,268.2z"/>
			<path class="st0" d="M105.3,263.7c1.8,1.8,2.8,4.5,2.8,8.2v14h-8.6v-12.6c0-3.3-1.3-5-4-5c-1.5,0-2.7,0.5-3.5,1.4
				c-0.9,1-1.3,2.4-1.3,4.3v11.8H82v-24.4h8.2v2.7c1-1,2.1-1.8,3.4-2.3c1.3-0.5,2.8-0.8,4.3-0.8C101,261,103.4,261.9,105.3,263.7z"
				/>
			<path class="st0" d="M131.2,284.9c-0.7,0.5-1.6,0.8-2.6,1s-2.1,0.4-3.3,0.4c-3.2,0-5.6-0.8-7.3-2.3c-1.7-1.6-2.6-3.9-2.6-7v-8.2
				h-3.6v-6.4h3.6V256h8.6v6.4h5.6v6.4h-5.6v8.1c0,0.9,0.2,1.6,0.7,2.1c0.5,0.5,1.1,0.7,1.9,0.7c1,0,1.9-0.3,2.6-0.8L131.2,284.9z"
				/>
		</g>
		<g>
			<path class="st0" d="M142.6,284.4c-2.6-1.4-4.7-3.3-6.2-5.8c-1.5-2.5-2.3-5.3-2.3-8.5c0-3.2,0.8-6,2.3-8.5
				c1.5-2.5,3.6-4.4,6.2-5.8c2.6-1.4,5.6-2.1,8.9-2.1c2.9,0,5.5,0.5,7.8,1.5c2.3,1,4.2,2.5,5.8,4.4l-5.7,5.1c-2-2.5-4.5-3.7-7.4-3.7
				c-1.7,0-3.2,0.4-4.6,1.1c-1.3,0.8-2.4,1.8-3.1,3.2c-0.7,1.4-1.1,2.9-1.1,4.7c0,1.8,0.4,3.3,1.1,4.7c0.7,1.4,1.8,2.4,3.1,3.2
				c1.3,0.8,2.9,1.1,4.6,1.1c2.9,0,5.4-1.2,7.4-3.7l5.7,5.1c-1.5,1.9-3.5,3.4-5.8,4.4c-2.3,1-4.9,1.5-7.8,1.5
				C148.2,286.5,145.2,285.8,142.6,284.4z"/>
			<path class="st0" d="M189.2,263.8c2.1,1.8,3.2,4.7,3.2,8.5v13.6h-8v-3.2c-1.2,2.4-3.6,3.6-7.2,3.6c-1.9,0-3.5-0.3-4.9-1
				c-1.4-0.7-2.4-1.6-3.1-2.7c-0.7-1.1-1.1-2.4-1.1-3.9c0-2.3,0.9-4.1,2.7-5.4c1.8-1.3,4.5-1.9,8.2-1.9h4.9
				c-0.2-2.6-1.9-3.9-5.2-3.9c-1.2,0-2.4,0.2-3.6,0.6c-1.2,0.4-2.2,0.9-3.1,1.6l-2.9-5.8c1.4-0.9,3-1.6,4.9-2.1
				c1.9-0.5,3.9-0.7,5.8-0.7C183.9,261,187,261.9,189.2,263.8z M182.2,280.1c0.8-0.5,1.3-1.2,1.6-2.1v-2.1h-3.7
				c-2.5,0-3.7,0.8-3.7,2.5c0,0.8,0.3,1.4,0.9,1.8c0.6,0.5,1.4,0.7,2.3,0.7C180.5,280.8,181.4,280.6,182.2,280.1z"/>
			<path class="st0" d="M210.2,261.8c1.4-0.6,3-0.8,4.8-0.8v7.7c-0.8-0.1-1.4-0.1-1.9-0.1c-1.8,0-3.3,0.5-4.3,1.5
				c-1,1-1.6,2.5-1.6,4.6v11.2h-8.6v-24.4h8.2v2.9C207.7,263.2,208.8,262.4,210.2,261.8z"/>
		</g>
	</g>
	<g>
		<path class="st0" d="M219.1,284.8c-1-1-1.5-2.2-1.5-3.7c0-1.5,0.5-2.7,1.5-3.7c1-0.9,2.2-1.4,3.7-1.4c1.5,0,2.7,0.5,3.7,1.4
			c1,0.9,1.4,2.1,1.4,3.7c0,1.5-0.5,2.7-1.5,3.7c-1,1-2.2,1.4-3.7,1.4C221.3,286.3,220,285.8,219.1,284.8z"/>
		<g>
			<path class="st0" d="M258.9,261.4v20c0,4.5-1.2,7.9-3.7,10.2c-2.5,2.3-6,3.4-10.6,3.4c-2.4,0-4.7-0.3-6.8-0.8
				c-2.1-0.5-3.9-1.3-5.4-2.4l3.1-6c1,0.8,2.2,1.4,3.8,1.9c1.5,0.5,3,0.7,4.5,0.7c2.3,0,3.9-0.5,5-1.5c1.1-1,1.6-2.5,1.6-4.4v-0.8
				c-1.7,1.9-4.1,2.9-7.3,2.9c-2.2,0-4.2-0.5-6-1.5c-1.8-1-3.3-2.4-4.4-4.1c-1.1-1.8-1.6-3.9-1.6-6.2c0-2.3,0.5-4.4,1.6-6.2
				c1.1-1.8,2.5-3.2,4.4-4.1c1.8-1,3.8-1.5,6-1.5c3.5,0,6,1.1,7.7,3.4v-3H258.9z M248.9,276.4c1-0.9,1.5-2.1,1.5-3.6
				c0-1.5-0.5-2.7-1.5-3.6c-1-0.9-2.3-1.4-3.8-1.4c-1.6,0-2.8,0.5-3.9,1.4c-1,0.9-1.5,2.1-1.5,3.6c0,1.5,0.5,2.7,1.5,3.6
				c1,0.9,2.3,1.4,3.8,1.4S247.9,277.3,248.9,276.4z"/>
			<path class="st0" d="M276.9,261.8c1.4-0.6,3-0.8,4.8-0.8v7.7c-0.8-0.1-1.4-0.1-1.9-0.1c-1.8,0-3.3,0.5-4.3,1.5
				c-1,1-1.6,2.5-1.6,4.6v11.2h-8.6v-24.4h8.2v2.9C274.3,263.2,275.5,262.4,276.9,261.8z"/>
		</g>
	</g>
</g>
</svg>
